<?xml version="1.0" encoding="UTF-8"?>
<svg width="120" height="120" viewBox="0 0 120 120" fill="none" xmlns="http://www.w3.org/2000/svg" role="img" aria-label="Partycooler logo">
  <defs>
    <linearGradient id="g" x1="0" y1="0" x2="1" y2="1">
      <stop offset="0%" stop-color="#FDE047"/>
      <stop offset="100%" stop-color="#F59E0B"/>
    </linearGradient>
    <filter id="shadow" x="-20%" y="-20%" width="140%" height="140%" color-interpolation-filters="sRGB">
      <feDropShadow dx="0" dy="3" stdDeviation="4" flood-opacity="0.35" />
    </filter>
  </defs>
  <g filter="url(#shadow)">
    <circle cx="60" cy="60" r="48" fill="url(#g)"/>
    <path d="M44 74V40h22c9 0 14 5 14 12 0 6-4 11-11 12l11 10H68l-9-9h-7v9H44zm14-30v12h8c4 0 6-2 6-6s-2-6-6-6h-8z" fill="#111827"/>
    <circle cx="82" cy="36" r="6" fill="#111827"/>
    <circle cx="38" cy="90" r="3" fill="#111827"/>
    <circle cx="28" cy="52" r="2.5" fill="#111827"/>
  </g>
</svg>
